<svg xmlns="http://www.w3.org/2000/svg" viewBox="0 0 108.291 56.884"><path fill="#282727" d="M104.543 56.374l.908-1.577c.127-.226.245-.457.355-.694h.017l.363.694.916 1.577h1.189l-1.824-2.972 1.758-2.89h-1.213l-.818 1.436a8.785 8.785 0 00-.363.71h-.017l-.363-.71-.809-1.436h-1.214l1.751 2.89-1.817 2.972h1.181zm-2.578 0v-.917h-2.576V53.88h1.973v-.916h-1.973v-1.536h2.444v-.916h-3.509v5.862h3.641zm-6.299 0v1.156h.95v-2.073h-.694v-4.945h-1.065v4.945h-2.535v-4.945h-1.065v5.862h4.409zm-13.285 0l2.229-3.377c.143-.231.306-.534.487-.908h.017l-.058.908v3.377h1.057v-5.862h-1.057l-2.213 3.377c-.143.231-.308.536-.495.916h-.017l.058-.908v-3.385h-1.065v5.862h1.057zm2.741-7.266v-.107h-.793v.099c0 .17-.056.301-.169.392s-.243.136-.392.136c-.149 0-.278-.045-.388-.136s-.165-.219-.165-.384v-.107h-.801v.107a1 1 0 00.396.83c.264.206.584.309.958.309s.693-.103.958-.309a1 1 0 00.396-.83m-9.65 7.266l2.23-3.377c.143-.231.305-.534.487-.908h.016l-.057.908v3.377h1.056v-5.862h-1.056l-2.213 3.377c-.144.231-.309.536-.496.916h-.016l.058-.908v-3.385h-1.066v5.862h1.057zm-4.258-2.543h.017l-.017.272v2.271h1.082v-5.862h-1.082v2.369a2.166 2.166 0 01-1.205.347c-.655 0-.983-.344-.983-1.032v-1.684h-1.081v1.923c0 .562.148.995.445 1.301.298.305.746.458 1.346.458.512 0 1.005-.121 1.478-.363m-9.19-1.862a1.834 1.834 0 011.371-.582c.54 0 .996.194 1.371.582.374.388.561.866.561 1.433 0 .594-.187 1.092-.561 1.494a1.803 1.803 0 01-1.371.603c-.539 0-.996-.201-1.371-.603-.374-.402-.561-.9-.561-1.494 0-.567.187-1.045.561-1.433m-.788 3.616c.581.592 1.3.888 2.159.888.859 0 1.578-.296 2.159-.888.581-.591.871-1.319.871-2.183 0-.843-.29-1.551-.871-2.127-.581-.575-1.3-.862-2.159-.862-.859 0-1.578.287-2.159.862-.581.576-.871 1.284-.871 2.127 0 .864.29 1.592.871 2.183m-5.337-1.886h.991c.291 0 .52.081.685.243.165.163.248.379.248.649 0 .269-.08.481-.24.635-.16.154-.385.231-.677.231h-1.007v-1.758zm1.197 2.675c.534 0 .969-.165 1.305-.495.335-.331.503-.76.503-1.288 0-.551-.169-.99-.508-1.317-.338-.328-.78-.492-1.325-.492h-1.172v-1.354h2.535v-.916h-3.6v5.862h2.262zm-6.676-3.939c.066-.22.143-.522.232-.908h.016l.231.908.52 1.569h-1.527l.528-1.569zm-1.288 3.939l.496-1.503h2.056l.503 1.503h1.09l-2.056-5.862h-1.123l-2.056 5.862h1.09zm-4.868-4.946h1.016c.297 0 .532.09.706.268.173.179.26.42.26.723 0 .308-.087.553-.26.735-.174.181-.415.272-.723.272h-.999v-1.998zm0 4.946v-2.023h1.197c.551 0 .999-.18 1.346-.541.347-.36.52-.824.52-1.391 0-.567-.173-1.027-.52-1.379-.347-.352-.795-.528-1.346-.528h-2.262v5.862h1.065zM42.457 1l34.467 43.595H108.291l-5.054-6.393L73.825 1z"/><path fill="#FFF" d="M66.868 12.289h-31.61l-.15.19L.641 56.074l-.641.81H32.643l.15-.19L67.26 13.099l.64-.81z"/><path fill="none" stroke="#282727" d="M35.108 12.479L.641 56.074l-.641.81h32.643l.15-.189L67.26 13.099l.641-.81H35.258z"/></svg>