<svg xmlns="http://www.w3.org/2000/svg" xmlns:xlink="http://www.w3.org/1999/xlink" viewBox="0 0 20 20"><defs><path id="a" d="M0 0h20v20H0z"/></defs><clipPath id="b"><use xlink:href="#a" overflow="visible"/></clipPath><path clip-path="url(#b)" fill="#25A5CE" d="M7.199 5.074l1.419 1.549c.193.225.193.58-.032.774l-.903.839c-.291.257-.258.452-.033.71l3.259 3.515c.226.259.419.291.677.065l.904-.838a.525.525 0 01.773.032l1.453 1.548c.193.226.161.549-.033.774-2.323 2.484-5.387.065-7.097-1.806S3.747 7.139 6.425 5.042a.555.555 0 01.774.032"/><path clip-path="url(#b)" fill="#25A5CE" d="M10 2c-4.412 0-8 3.589-8 8s3.588 8 8 8 8-3.589 8-8-3.588-8-8-8m0 18C4.486 20 0 15.514 0 10S4.486 0 10 0s10 4.486 10 10-4.486 10-10 10"/></svg>