<?xml version="1.0" standalone="no"?>
<!DOCTYPE svg PUBLIC "-//W3C//DTD SVG 20010904//EN"
 "http://www.w3.org/TR/2001/REC-SVG-20010904/DTD/svg10.dtd">
<svg version="1.0" xmlns="http://www.w3.org/2000/svg"
 width="449.000000pt" height="427.000000pt" viewBox="0 0 449.000000 427.000000"
 preserveAspectRatio="xMidYMid meet">
<metadata>
Created by potrace 1.15, written by Peter Selinger 2001-2017
</metadata>
<g transform="translate(0.000000,427.000000) scale(0.100000,-0.100000)"
fill="#000000" stroke="none">
<path d="M2153 4060 c-85 -17 -159 -77 -197 -159 -31 -68 -28 -170 6 -236 52
-100 133 -149 248 -150 65 0 82 4 130 30 66 36 114 97 136 172 57 195 -120
383 -323 343z m117 -165 c38 -19 60 -63 60 -116 0 -33 -6 -47 -34 -75 -30 -30
-40 -34 -86 -34 -46 0 -56 4 -86 34 -28 28 -34 42 -34 75 0 103 91 162 180
116z"/>
<path d="M2083 3475 c-226 -61 -374 -246 -390 -489 -5 -88 -5 -93 20 -121 l25
-30 472 0 472 0 24 28 c19 23 24 39 24 85 -1 304 -233 544 -525 541 -38 0 -94
-7 -122 -14z m248 -160 c117 -42 220 -163 236 -280 l6 -45 -363 0 -363 0 6 45
c4 25 18 68 32 96 86 168 273 245 446 184z"/>
<path d="M777 3426 c-78 -28 -139 -92 -163 -173 -53 -175 73 -343 257 -343
150 0 262 113 263 266 0 183 -184 311 -357 250z m138 -150 c80 -34 87 -150 13
-197 -73 -45 -168 6 -168 92 0 51 13 75 53 99 38 24 57 25 102 6z"/>
<path d="M3456 3425 c-89 -34 -147 -106 -167 -207 -22 -108 37 -227 140 -280
144 -75 331 2 376 156 19 63 19 99 0 162 -18 61 -62 116 -122 151 -56 33 -166
41 -227 18z m144 -150 c65 -34 82 -118 34 -174 -63 -75 -194 -31 -194 66 0 92
83 148 160 108z"/>
<path d="M818 2889 c-185 -28 -327 -244 -328 -496 0 -137 -12 -133 385 -133
l317 0 29 29 c26 26 29 36 29 88 -2 317 -197 548 -432 512z m122 -169 c21 -11
55 -41 75 -66 36 -48 75 -154 75 -205 l0 -29 -223 0 -224 0 9 57 c23 147 118
263 216 263 18 0 50 -9 72 -20z"/>
<path d="M3422 2865 c-147 -68 -250 -269 -252 -488 0 -52 3 -62 29 -88 l29
-29 317 0 c397 0 385 -4 385 133 -1 209 -96 394 -242 466 -82 41 -185 44 -266
6z m194 -141 c72 -34 141 -147 151 -249 l6 -55 -222 0 -221 0 0 29 c0 50 39
158 73 203 61 79 141 106 213 72z"/>
<path d="M1425 2728 c-25 -22 -37 -80 -261 -1243 -256 -1329 -245 -1251 -184
-1282 31 -16 2413 -19 2454 -3 14 5 32 20 41 33 15 23 3 91 -219 1248 -224
1165 -237 1225 -261 1247 l-26 22 -759 0 -759 0 -26 -22z m1673 -1245 c117
-610 213 -1114 212 -1120 0 -10 -228 -13 -1103 -13 l-1104 0 62 322 c35 178
132 682 216 1121 l153 797 676 0 676 0 212 -1107z"/>
<path d="M469 1972 c-103 -53 -162 -172 -140 -280 29 -146 140 -231 287 -219
109 8 199 79 229 181 19 63 19 99 0 162 -45 154 -232 231 -376 156z m204 -162
c34 -38 38 -104 7 -142 -67 -86 -200 -39 -200 70 0 44 14 69 53 93 46 29 103
20 140 -21z"/>
<path d="M3714 1976 c-88 -41 -154 -144 -154 -241 0 -136 108 -251 244 -262
245 -20 382 255 222 444 -68 81 -208 107 -312 59z m174 -146 c81 -49 64 -174
-27 -201 -75 -22 -141 27 -141 106 0 92 89 143 168 95z"/>
<path d="M519 1447 c-176 -50 -289 -223 -305 -467 -7 -92 -6 -97 19 -125 l25
-30 309 -3 c334 -4 372 1 391 43 30 65 5 249 -47 359 -80 167 -248 263 -392
223z m134 -161 c73 -31 143 -146 154 -251 l6 -55 -223 0 -223 0 6 48 c13 109
77 220 149 255 41 20 88 21 131 3z"/>
<path d="M3752 1445 c-178 -50 -301 -252 -302 -496 0 -86 16 -114 72 -124 18
-3 170 -5 336 -3 l304 3 24 28 c19 23 24 39 24 85 -1 150 -57 311 -139 404
-80 90 -212 133 -319 103z m144 -161 c73 -35 138 -146 151 -256 l6 -48 -223 0
-223 0 6 55 c3 30 17 81 32 113 59 129 155 181 251 136z"/>
</g>
</svg>
