<svg xmlns="http://www.w3.org/2000/svg" viewBox="0 0 20 20"><path fill="#25A5CE" d="M10 2c-4.412 0-8 3.589-8 8s3.588 8 8 8 8-3.589 8-8-3.588-8-8-8m0 18C4.486 20 0 15.514 0 10S4.486 0 10 0s10 4.486 10 10-4.486 10-10 10"/><path fill="#25A5CE" d="M5.8 12.373h5.04v1.331H5.8z"/><path fill="none" stroke="#25A5CE" stroke-width=".25" d="M5.8 12.373h5.04v1.331H5.8z"/><path fill="#25A5CE" d="M5.8 10.003h3.8v1.471H5.8z"/><path fill="none" stroke="#25A5CE" stroke-width=".25" d="M5.8 10.003h3.8v1.471H5.8z"/><path fill="#25A5CE" d="M9.214 6.72h1.653c.484 0 .867.146 1.149.437.282.292.424.684.424 1.176 0 .502-.142.901-.424 1.196-.282.296-.674.444-1.176.444H9.214V6.72zm0 8.051v-3.293h1.949c.896 0 1.626-.293 2.191-.88.564-.587.846-1.342.846-2.265 0-.922-.282-1.671-.846-2.244-.565-.574-1.295-.86-2.191-.86H7.48v9.542h1.734z"/><path fill="none" stroke="#25A5CE" stroke-width=".25" d="M9.214 6.72h1.653c.484 0 .867.146 1.149.437.282.292.424.684.424 1.176 0 .502-.142.901-.424 1.196-.282.296-.674.444-1.176.444H9.214V6.72zm0 8.051v-3.293h1.949c.896 0 1.626-.293 2.191-.88.564-.587.846-1.342.846-2.265 0-.922-.282-1.671-.846-2.244-.565-.574-1.295-.86-2.191-.86H7.48v9.542h1.734z"/></svg>