<?xml version="1.0" standalone="no"?>
<!DOCTYPE svg PUBLIC "-//W3C//DTD SVG 20010904//EN"
 "http://www.w3.org/TR/2001/REC-SVG-20010904/DTD/svg10.dtd">
<svg version="1.0" xmlns="http://www.w3.org/2000/svg"
 width="315.000000pt" height="488.000000pt" viewBox="0 0 315.000000 488.000000"
 preserveAspectRatio="xMidYMid meet">
<metadata>
Created by potrace 1.15, written by Peter Selinger 2001-2017
</metadata>
<g transform="translate(0.000000,488.000000) scale(0.100000,-0.100000)"
fill="#000000" stroke="none">
<path d="M595 4419 c-209 -30 -355 -210 -355 -437 0 -62 23 -164 44 -197 7
-11 19 -38 26 -60 7 -22 18 -46 24 -54 7 -9 13 -86 16 -202 3 -128 9 -192 17
-200 16 -16 70 -16 86 0 8 8 13 58 15 146 l4 133 52 -5 c58 -6 86 10 86 50 0
36 -15 49 -64 58 -26 5 -61 18 -77 30 -55 39 -76 111 -41 142 37 34 73 15 112
-59 21 -41 31 -50 57 -52 38 -4 55 18 73 96 7 29 19 56 29 61 9 5 38 5 66 0
78 -12 143 -10 237 9 l87 18 8 -46 c4 -25 8 -124 7 -220 -1 -138 -5 -190 -20
-245 -18 -67 -21 -71 -59 -83 -83 -28 -187 3 -270 79 -63 58 -115 51 -115 -17
0 -38 60 -99 138 -138 l50 -25 4 -61 c5 -69 15 -83 58 -83 41 0 52 13 58 72 4
49 6 51 36 51 79 0 157 45 191 110 42 82 60 406 32 586 l-13 81 32 38 c58 67
69 99 69 212 0 92 -2 105 -22 124 -21 22 -24 22 -107 9 -111 -17 -174 -9 -272
34 -68 30 -189 59 -229 55 -5 -1 -37 -5 -70 -10z m205 -140 c99 -47 162 -60
280 -58 l105 2 3 -31 c5 -51 -30 -117 -80 -148 -88 -56 -195 -76 -330 -60 -56
6 -74 4 -110 -12 -24 -11 -53 -31 -66 -45 l-24 -25 -41 24 c-48 27 -105 31
-146 9 -16 -8 -31 -11 -35 -8 -13 13 -5 103 13 163 45 144 145 218 296 219 58
1 81 -4 135 -30z"/>
<path d="M363 3172 c-15 -10 -45 -80 -94 -222 -71 -205 -117 -392 -144 -586
-32 -228 -40 -778 -19 -1253 6 -123 9 -136 30 -158 13 -13 34 -23 47 -23 23 0
26 -7 73 -237 45 -220 49 -252 54 -425 3 -127 9 -191 17 -199 16 -16 70 -16
86 0 8 8 13 63 15 174 3 160 2 165 -48 411 -27 138 -50 256 -50 263 0 10 72
13 370 13 l369 0 3 -385 c2 -285 6 -387 15 -396 16 -16 70 -16 86 0 9 9 13
145 17 543 l5 531 90 28 c50 16 93 29 97 29 4 0 9 -270 10 -600 2 -454 6 -602
15 -611 16 -16 70 -16 86 0 9 9 13 164 17 633 l5 620 605 189 c333 103 611
188 617 189 10 0 13 -176 15 -810 2 -619 6 -812 15 -821 16 -16 70 -16 86 0 9
9 13 209 17 843 l5 831 64 22 c35 11 69 29 77 40 10 14 14 53 14 145 0 136
-11 170 -53 170 -12 0 -85 -20 -162 -44 l-140 -44 -3 211 c-1 115 -1 212 2
214 2 2 38 -10 80 -27 42 -16 88 -30 102 -30 40 0 88 25 118 61 25 29 28 39
24 85 -8 96 -20 104 -319 225 l-264 106 -23 49 c-49 103 -124 153 -227 154
-98 0 -198 -59 -241 -143 -27 -52 -29 -134 -5 -199 25 -64 85 -132 136 -154
50 -21 147 -18 203 6 l47 20 120 -48 120 -48 3 -261 2 -260 -92 -28 c-66 -20
-93 -25 -96 -16 -9 27 -55 70 -85 80 -18 5 -252 13 -549 17 l-518 7 0 66 c0
74 -23 236 -45 322 -37 146 -199 537 -238 576 -9 9 -48 19 -99 24 -109 11
-244 51 -338 100 -75 39 -104 46 -127 31z m177 -178 c76 -29 174 -53 281 -69
36 -5 38 -9 83 -109 59 -132 121 -297 146 -389 23 -83 50 -260 50 -329 l0 -48
-39 0 c-43 0 -92 29 -125 73 -20 27 -21 45 -26 282 -4 180 -9 258 -17 266 -16
16 -70 16 -86 0 -9 -9 -12 -78 -12 -259 0 -281 6 -311 77 -388 67 -73 116 -88
311 -92 l167 -4 0 -139 0 -139 -245 0 c-221 0 -252 2 -306 20 -125 42 -211
124 -264 250 -17 40 -20 80 -25 332 -4 206 -8 290 -17 299 -16 16 -70 16 -86
0 -9 -9 -12 -84 -12 -284 0 -253 2 -277 22 -342 39 -123 122 -231 237 -306 85
-56 169 -79 309 -86 97 -5 117 -9 112 -20 -3 -8 -5 -116 -5 -239 l0 -224 -424
0 -424 0 -7 156 c-10 205 1 985 15 1094 26 209 94 479 172 688 16 43 23 52 36
46 10 -4 55 -22 102 -40z m1689 -43 c51 -27 71 -60 71 -119 0 -50 -30 -109
-69 -139 -22 -17 -106 -16 -139 1 -99 52 -108 183 -16 255 34 27 102 28 153 2z
m431 -294 c193 -79 225 -95 228 -115 2 -12 -3 -24 -11 -28 -8 -3 -111 34 -228
81 -118 48 -224 91 -236 96 -20 7 -22 11 -11 34 6 14 16 25 22 24 6 0 112 -42
236 -92z m250 -730 l0 -52 -722 -224 c-644 -200 -946 -293 -986 -306 -10 -4
-12 9 -10 52 l3 56 840 263 c462 144 848 262 858 263 14 1 17 -8 17 -52z
m-1360 -121 c0 -122 0 -124 -24 -130 -13 -3 -31 -9 -40 -12 -14 -5 -16 10 -16
130 l0 136 40 0 40 0 0 -124z m664 118 c25 -4 46 -10 46 -14 0 -3 -125 -45
-278 -93 -154 -47 -286 -89 -295 -93 -15 -5 -17 5 -17 100 l0 106 249 0 c136
0 269 -3 295 -6z"/>
</g>
</svg>
